<?xml version="1.0" encoding="UTF-8"?> <svg xmlns="http://www.w3.org/2000/svg" viewBox="0 0 270.09 82.21"> <defs> <style>.cls-1{fill:none;stroke:#0056d3;stroke-miterlimit:10;stroke-width:5px;}</style> </defs> <title>template_illustrationМонтажная область 11</title> <g id="Слой_1" data-name="Слой 1"> <polygon class="cls-1" points="89.92 30.6 68.92 5.86 26.92 5.86 5.92 30.6 47.92 76.32 89.92 30.6"></polygon> <line class="cls-1" x1="5.92" y1="30.6" x2="89.92" y2="30.6"></line> <path d="M138.22,39.39h17.11v1a22.63,22.63,0,0,1-3.94,13,18.42,18.42,0,0,1-15.27,7.39,20.87,20.87,0,0,1-21.3-21.24,20.94,20.94,0,0,1,21.42-21.24,20.44,20.44,0,0,1,12.56,4.06,25.12,25.12,0,0,1,4.74,4.86l-3.39,3.08A21.68,21.68,0,0,0,146.29,26a15.08,15.08,0,0,0-10-3.45c-9.91,0-16.81,7.45-16.81,17,0,11.2,8.93,16.87,16.68,16.87a14.29,14.29,0,0,0,12.56-6.89,13,13,0,0,0,1.66-5.85H138.22Z"></path> <path d="M185.26,53.48a15.29,15.29,0,0,1-3.14,4.12,12.4,12.4,0,0,1-8.5,3.14c-6.16,0-12.62-3.88-12.62-13.36,0-7.63,4.68-13.54,12.37-13.54A11.43,11.43,0,0,1,183,38.53c1.6,2.28,2.52,6.22,2.4,9.6H165.56c.06,5.29,3.69,8.68,8.13,8.68A7.77,7.77,0,0,0,178.92,55a10.19,10.19,0,0,0,2.65-3.51Zm-4.37-9c-.74-4-3.76-6.65-7.51-6.65a7.76,7.76,0,0,0-7.51,6.65Z"></path> <path d="M192.22,34.46h4.43v2.77a7.1,7.1,0,0,1,5.79-3.39,9.37,9.37,0,0,1,3.94,1l-2.09,4A4.56,4.56,0,0,0,201.7,38a4.29,4.29,0,0,0-3.57,1.6c-.74,1-1.48,2.71-1.48,6.89V60h-4.43Z"></path> <path d="M228.54,15.13H233V60h-4.43V56.44a10.78,10.78,0,0,1-8.74,4.31c-6.46,0-12.43-4.56-12.43-13.54,0-8.8,5.91-13.36,12.43-13.36a10.57,10.57,0,0,1,8.74,4.25ZM211.92,47.21c0,5.48,3.08,9.6,8.37,9.6s8.5-4.49,8.5-9.54c0-6.59-4.56-9.48-8.5-9.48C215.92,37.79,211.92,41,211.92,47.21Z"></path> <path d="M260.92,34.46h4.43V60h-4.43V56.44a10.78,10.78,0,0,1-8.74,4.31c-6.46,0-12.43-4.56-12.43-13.54,0-8.8,5.91-13.36,12.43-13.36a10.57,10.57,0,0,1,8.74,4.25ZM244.3,47.21c0,5.48,3.08,9.6,8.37,9.6s8.5-4.49,8.5-9.54c0-6.59-4.56-9.48-8.5-9.48C248.3,37.79,244.3,41,244.3,47.21Z"></path> </g> </svg> 