<?xml version="1.0" encoding="UTF-8"?> <!-- Generator: Adobe Illustrator 21.1.0, SVG Export Plug-In . SVG Version: 6.00 Build 0) --> <svg xmlns="http://www.w3.org/2000/svg" xmlns:xlink="http://www.w3.org/1999/xlink" id="Слой_1" x="0px" y="0px" viewBox="0 0 189 72" style="enable-background:new 0 0 189 72;" xml:space="preserve"> <style type="text/css"> .st0{fill:none;stroke:#000000;stroke-width:4;stroke-miterlimit:10;} </style> <g> <path d="M32.7,29.8V3.2h14.1v2.7h-11v9.8h9.7v2.7h-9.7v11.4H32.7z"></path> <path d="M49.6,19.5c0-6.4,2.4-10.8,8.7-10.8c6.3,0,8.5,4.3,8.5,10.6c0,6.4-2.4,10.8-8.7,10.8S49.6,25.9,49.6,19.5z M58.3,27.6 c4,0,5.4-2.6,5.4-8c0-5.5-1.7-8.2-5.7-8.2c-3.9,0-5.4,2.6-5.4,8C52.7,24.9,54.4,27.6,58.3,27.6z"></path> <path d="M71.3,14.6c0-3,2.5-5.7,7.1-5.7c2.5,0,4.8,0.9,6,2.2l-1.9,2.1c-1-1-2.6-1.7-4.2-1.7c-2.8,0-4.1,1.4-4.1,3.1 c0,4.6,10.4,2.8,10.4,9.8c0,2.8-2.4,5.9-7.4,5.9c-3.4,0-6-1.3-7.3-2.6l1.8-2.2c1.3,1.3,3.2,2.3,5.6,2.3c2.9,0,4.3-1.5,4.3-3.3 C81.7,19.7,71.3,21.6,71.3,14.6z"></path> <path d="M90.6,24.3V11.6h-3.1V9.7l3.1-0.6l0.9-5.4h2v5.4h5.7v2.4h-5.7v12.6c0,2.3,1.2,3.3,3,3.3c1.7,0,2.6-0.4,3.2-0.7l0.8,2.4 c-0.8,0.5-2.2,1-4.6,1C92.5,30,90.6,28.2,90.6,24.3z"></path> <path d="M119,28.2c-1.4,1-3.5,1.9-6.5,1.9c-5.9,0-9.1-3-9.1-10.7c0-7.5,4.2-10.6,8.8-10.6c4.9,0,7.5,3.2,7.5,8.1 c0,1-0.1,2.2-0.2,3.6h-13.1c0.3,5.1,2.4,7,6.5,7c2.1,0,3.9-0.8,4.8-1.6L119,28.2z M106.3,18.1h10.4c0-0.5,0-0.9,0-1.2 c0-3.5-1.5-5.5-4.9-5.5C109.2,11.4,106.6,13.1,106.3,18.1z"></path> <path d="M135.4,12.1c-0.8-0.2-1.6-0.3-2.3-0.3c-2,0-4.1,0.8-5.1,2.7v15.4h-2.9V9.2h2.2l0.6,2.3h0.2c0.9-1.5,2.8-2.6,5.2-2.6 c0.9,0,1.6,0.1,2.1,0.2V12.1z"></path> <path d="M49.7,59.3c0,4.3-2.6,7.5-8.9,7.5h-8.1V40.2h8.1c4.1,0,7.6,1.8,7.6,6.8c0,3.2-1.5,5.5-3.6,6v0.2 C47.5,53.5,49.7,55.5,49.7,59.3z M40.2,42.9h-4.6v9.2h4.7c3.4,0,5-1.4,5-4.8C45.4,44.1,43.4,42.9,40.2,42.9z M46.6,59.5 c0-3.8-2.7-4.7-5.8-4.7h-5.2v9.4H41C44.9,64.2,46.6,62.8,46.6,59.5z"></path> <path d="M65.5,49.1c-0.8-0.2-1.6-0.3-2.3-0.3c-2,0-4.1,0.8-5.1,2.7v15.4h-2.9V46.2h2.2l0.6,2.3h0.2c0.9-1.5,2.8-2.6,5.2-2.6 c0.9,0,1.6,0.1,2.1,0.2V49.1z"></path> <path d="M67.8,56.5c0-6.4,2.4-10.8,8.7-10.8c6.3,0,8.5,4.3,8.5,10.6c0,6.4-2.4,10.8-8.7,10.8S67.8,62.9,67.8,56.5z M76.5,64.6 c4,0,5.4-2.6,5.4-8c0-5.5-1.7-8.2-5.7-8.2c-3.9,0-5.4,2.6-5.4,8C70.8,61.9,72.5,64.6,76.5,64.6z"></path> <path d="M90.8,61.3V48.6h-3.1v-1.9l3.1-0.6l0.9-5.4h2v5.4h5.7v2.4h-5.7v12.6c0,2.3,1.2,3.3,3,3.3c1.7,0,2.6-0.4,3.2-0.7l0.8,2.4 c-0.8,0.5-2.2,1-4.6,1C92.7,67,90.8,65.2,90.8,61.3z"></path> <path d="M120.2,52.6v14.3h-3V53c0-2.6-1.4-4.6-4.2-4.6c-2.8,0-4.8,1.9-5.5,3.6v14.7h-3V38h3v10.4h0.2c0.6-0.7,2.5-2.6,6-2.6 C117.7,45.8,120.2,48.3,120.2,52.6z"></path> <path d="M140.9,65.2c-1.4,1-3.5,1.9-6.5,1.9c-5.9,0-9.1-3-9.1-10.7c0-7.5,4.2-10.6,8.8-10.6c4.9,0,7.5,3.2,7.5,8.1 c0,1-0.1,2.2-0.2,3.6h-13.1c0.3,5.1,2.4,7,6.5,7c2.1,0,3.9-0.8,4.8-1.6L140.9,65.2z M128.3,55.1h10.4c0-0.5,0-0.9,0-1.2 c0-3.5-1.5-5.5-4.9-5.5C131.2,48.4,128.6,50.1,128.3,55.1z"></path> <path d="M157.4,49.1c-0.8-0.2-1.6-0.3-2.3-0.3c-2,0-4.1,0.8-5.1,2.7v15.4h-2.9V46.2h2.2l0.6,2.3h0.2c0.9-1.5,2.8-2.6,5.2-2.6 c0.9,0,1.6,0.1,2.1,0.2V49.1z"></path> <path d="M159.8,51.6c0-3,2.5-5.7,7.1-5.7c2.5,0,4.8,0.9,6,2.2l-1.9,2.1c-1-1-2.6-1.7-4.2-1.7c-2.8,0-4.1,1.4-4.1,3.1 c0,4.6,10.4,2.8,10.4,9.8c0,2.8-2.4,5.9-7.4,5.9c-3.4,0-6-1.3-7.3-2.6l1.8-2.2c1.3,1.3,3.2,2.3,5.6,2.3c2.9,0,4.3-1.5,4.3-3.3 C170.2,56.7,159.8,58.6,159.8,51.6z"></path> </g> <g> <circle cx="18.2" cy="8.4" r="5.1"></circle> </g> <g> <circle cx="18.2" cy="24.6" r="5.1"></circle> </g> </svg> 