<?xml version="1.0" encoding="UTF-8"?> <!-- Generator: Adobe Illustrator 21.1.0, SVG Export Plug-In . SVG Version: 6.00 Build 0) --> <svg xmlns="http://www.w3.org/2000/svg" xmlns:xlink="http://www.w3.org/1999/xlink" id="Слой_1" x="0px" y="0px" viewBox="0 0 195.7 46" style="enable-background:new 0 0 195.7 46;" xml:space="preserve"> <style type="text/css"> .st0{fill:none;stroke:#000000;stroke-width:4;stroke-miterlimit:10;} </style> <g> <path d="M24.7,12.5v23c1.1,0.5,2.1,0.7,3.3,0.9V38h-9.8v-1.7c1.2-0.2,2.3-0.4,3.4-0.9V8.7c-1-0.5-2.2-0.8-3.8-1V5.9h8.5L38,32.1 L49.5,5.9h8.3v1.8c-1.3,0.2-2.6,0.5-3.7,0.9v26.9c1.1,0.5,2.1,0.7,3.3,0.9V38H46.2v-1.7c1.2-0.2,2.2-0.4,3.3-0.8V12.4L37.9,38.2 h-1.7L24.7,12.5z"></path> <path d="M73.9,35.4c-2,2-3.6,3.1-6.5,3.1c-3.7,0-6.2-2.5-6.2-5.8c0-3.3,1.7-6.5,12.5-7.3v-1.8c0-4.9-1.3-6.4-4.3-6.4 c-0.7,0-1.5,0-2.2,0.1L66,21.6h-3.3v-5.2c2.3-0.8,5-1.5,7.6-1.5c5.6,0,7.5,3.4,7.5,8.6v10.1c0,2,0.7,2.7,2,2.7c0.4,0,1-0.1,1.2-0.3 l0.4,1.5c-0.7,0.5-1.8,1-3.3,1C76.1,38.4,74.4,37.3,73.9,35.4z M73.7,33.5v-5.9c-3.3,0.2-5.7,0.6-7.9,1.5c-0.5,0.7-0.7,1.5-0.7,2.3 c0,2.4,1.3,4.2,4,4.2C71.2,35.6,72.4,34.7,73.7,33.5z"></path> <path d="M87.5,22.8c0-1.1,0-4.2-0.2-4.9l-3.9-0.4v-1.8l7.8-0.7c0.2,1.8,0.3,4,0.4,6.1c2-3.7,4.3-6.1,7.3-6.1c1.3,0,2.2,0.4,2.9,0.8 v6.4h-3.1l-1.1-3.9c-2.3,0-4.1,2.1-6,5.3v12.1c1.1,0.4,1.9,0.7,3,0.9V38H84.4v-1.5c1.1-0.2,2.1-0.4,3.1-0.9V22.8z"></path> <path d="M109.7,22.8c0-1.1,0-4.2-0.2-4.9l-3.9-0.4v-1.8l7.7-0.7c0.1,1,0.2,2.2,0.2,3.4c2.6-2.4,4.5-3.6,7.4-3.6c4.4,0,7,3.4,7,8.2 v12.7c1,0.4,1.9,0.7,3,0.9V38h-10v-1.5c1.1-0.2,1.8-0.4,2.8-0.8V23.3c0-4.5-2.4-5.4-4.5-5.4c-1.8,0-3.8,1-5.4,1.9v15.8 c1,0.4,1.7,0.6,2.7,0.8V38h-10v-1.5c1.1-0.2,2.1-0.4,3.1-0.9V22.8z"></path> <path d="M137.9,22.8c0-1.1,0-4.2-0.2-4.9l-3.9-0.4v-1.8l8.1-0.7c0.1,2.2,0.2,5.1,0.2,7.8v12.9c1.1,0.4,1.9,0.7,3.1,0.9V38h-10.4 v-1.5c1.1-0.2,2.1-0.4,3.1-0.9V22.8z M139.6,9.5c-1.6,0-2.9-1.3-2.9-2.9c0-1.6,1.3-2.9,2.9-2.9c1.6,0,2.9,1.3,2.9,2.9 C142.4,8.2,141.2,9.5,139.6,9.5z"></path> <path d="M167.4,34.3c-1.8,2.6-4.6,4.2-8.5,4.2c-6.4,0-10.6-4.6-10.6-11.6c0-6.6,4.1-12,10.7-12c4.6,0,8.4,4,8.5,9.6 c-0.3,0.6-0.7,1.1-1.2,1.5h-13.7c0,6.7,3.9,9.6,7.5,9.6c3,0,4.6-1,6.1-2.6L167.4,34.3z M152.7,24c3.7,0,11-0.1,11-0.4 c0-4.1-2.5-6.5-6-6.5c-0.6,0-1.1,0.1-1.8,0.2C153.9,19,153,21.2,152.7,24z"></path> <path d="M174.7,32.3c1.6,0,3,1.3,3,3.1c0,1.7-1.5,3-3,3c-1.6,0-3.1-1.3-3.1-3C171.7,33.6,173.1,32.3,174.7,32.3z"></path> </g> </svg> 