<?xml version="1.0" encoding="UTF-8"?> <!-- Generator: Adobe Illustrator 21.1.0, SVG Export Plug-In . SVG Version: 6.00 Build 0) --> <svg xmlns="http://www.w3.org/2000/svg" xmlns:xlink="http://www.w3.org/1999/xlink" id="Слой_1" x="0px" y="0px" viewBox="0 0 220 49.7" style="enable-background:new 0 0 220 49.7;" xml:space="preserve"> <style type="text/css"> .st0{fill:none;stroke:#000000;stroke-width:4;stroke-miterlimit:10;} </style> <g> <path d="M70.6,38.1h17.7v5.3H61.4l18.2-31.7H64.4V6.4h24.4L70.6,38.1z"></path> <path d="M129.9,25c0,10.9-8.1,19.2-19.2,19.2c-11.1,0-19.2-8.3-19.2-19.2s8.1-19.2,19.2-19.2C121.7,5.8,129.9,14.1,129.9,25z M124.2,25c0-8.2-5.7-14-13.6-14C102.7,11,97,16.7,97,25s5.7,14,13.6,14C118.5,38.9,124.2,33.2,124.2,25z"></path> <path d="M173.7,25c0,10.9-8.1,19.2-19.2,19.2c-11.1,0-19.2-8.3-19.2-19.2s8.1-19.2,19.2-19.2C165.5,5.8,173.7,14.1,173.7,25z M168,25c0-8.2-5.7-14-13.6-14c-7.9,0-13.6,5.8-13.6,14s5.7,14,13.6,14C162.3,38.9,168,33.2,168,25z"></path> <path d="M186.4,6.4v37h-5.7v-37H186.4z"></path> <path d="M215.7,11.8h-14.7v9.4h14.3v5.3h-14.3v11.6h14.7v5.3h-20.4v-37h20.4V11.8z"></path> </g> <g> <polygon points="32.5,18.7 19.7,18.7 7.7,6.7 7.7,43.9 22.8,43.9 22.8,38 29.3,38 29.3,43.9 44.5,43.9 44.5,6.7 "></polygon> </g> </svg> 