<?xml version="1.0" encoding="UTF-8"?> <!-- Generator: Adobe Illustrator 21.1.0, SVG Export Plug-In . SVG Version: 6.00 Build 0) --> <svg xmlns="http://www.w3.org/2000/svg" xmlns:xlink="http://www.w3.org/1999/xlink" id="Слой_1" x="0px" y="0px" viewBox="0 0 177.3 38.5" style="enable-background:new 0 0 177.3 38.5;" xml:space="preserve"> <style type="text/css"> .st0{fill:none;stroke:#000000;stroke-width:4;stroke-miterlimit:10;} </style> <g> <path d="M36,28.1V8.6h4.1l5,8.4c1.3,2.2,2.4,4.4,3.3,6.5h0.1c-0.2-2.6-0.3-5.1-0.3-8.1V8.6h3.3v19.5h-3.7l-5.1-8.6 c-1.2-2.1-2.5-4.5-3.5-6.7l-0.1,0c0.1,2.5,0.2,5.1,0.2,8.3v7H36z"></path> <path d="M58,22.1c0.1,2.5,2.1,3.6,4.3,3.6c1.6,0,2.8-0.2,3.9-0.6l0.5,2.5c-1.2,0.5-2.9,0.9-4.9,0.9c-4.6,0-7.3-2.8-7.3-7.1 c0-3.9,2.4-7.6,6.9-7.6c4.6,0,6.1,3.8,6.1,6.9c0,0.7-0.1,1.2-0.1,1.5H58z M64.2,19.6c0-1.3-0.5-3.4-2.9-3.4c-2.2,0-3.1,2-3.3,3.4 H64.2z"></path> <path d="M72.5,14l1.5,6.4c0.3,1.5,0.6,3,0.9,4.6h0.1c0.3-1.5,0.8-3.1,1.2-4.5l1.8-6.4h2.9l1.8,6.3c0.4,1.6,0.8,3.2,1.1,4.7h0.1 c0.2-1.5,0.5-3.1,0.9-4.7l1.6-6.3h3.5l-4.4,14.1H82l-1.7-5.7c-0.4-1.5-0.8-2.8-1.1-4.5h-0.1c-0.3,1.7-0.7,3.1-1.1,4.5l-1.8,5.7H73 L68.8,14H72.5z"></path> <path d="M102,22.6l-1.7,5.5h-3.7l6.3-19.5h4.5l6.3,19.5H110l-1.8-5.5H102z M107.6,19.9l-1.5-4.8c-0.4-1.2-0.7-2.5-1-3.6h-0.1 c-0.3,1.1-0.6,2.5-0.9,3.6l-1.5,4.8H107.6z"></path> <path d="M116.1,24.9c0.8,0.5,2.3,1,3.6,1c1.6,0,2.3-0.6,2.3-1.6c0-1-0.6-1.4-2.3-2.1c-2.7-1-3.9-2.5-3.9-4.1c0-2.5,2.1-4.4,5.3-4.4 c1.6,0,2.9,0.4,3.7,0.8l-0.7,2.5c-0.6-0.3-1.7-0.8-3-0.8c-1.3,0-2,0.6-2,1.5c0,0.9,0.7,1.3,2.5,2c2.5,0.9,3.7,2.2,3.8,4.3 c0,2.5-2,4.4-5.7,4.4c-1.7,0-3.2-0.4-4.3-1L116.1,24.9z"></path> <path d="M128.4,18.7c0-1.9-0.1-3.4-0.1-4.7h3.1l0.2,2.2h0.1c1-1.6,2.7-2.5,4.8-2.5c3.2,0,5.9,2.8,5.9,7.2c0,5.1-3.2,7.6-6.4,7.6 c-1.8,0-3.2-0.8-4-1.9h-0.1v7.3h-3.6V18.7z M131.9,22.2c0,0.3,0,0.7,0.1,1c0.3,1.4,1.6,2.5,3.1,2.5c2.3,0,3.6-1.9,3.6-4.7 c0-2.5-1.2-4.5-3.5-4.5c-1.5,0-2.8,1.1-3.2,2.6c-0.1,0.3-0.1,0.6-0.1,0.9V22.2z"></path> <path d="M147.8,22.1c0.1,2.5,2.1,3.6,4.3,3.6c1.6,0,2.8-0.2,3.9-0.6l0.5,2.5c-1.2,0.5-2.9,0.9-4.9,0.9c-4.6,0-7.3-2.8-7.3-7.1 c0-3.9,2.4-7.6,6.9-7.6c4.6,0,6.1,3.8,6.1,6.9c0,0.7-0.1,1.2-0.1,1.5H147.8z M154,19.6c0-1.3-0.5-3.4-2.9-3.4c-2.2,0-3.1,2-3.3,3.4 H154z"></path> <path d="M160.2,18.2c0-1.6,0-3-0.1-4.2h3.1l0.2,2.1h0.1c0.6-1.1,2.1-2.4,4.5-2.4c2.5,0,5,1.6,5,6v8.4h-3.6v-8c0-2-0.8-3.6-2.7-3.6 c-1.4,0-2.4,1-2.8,2.1c-0.1,0.3-0.1,0.8-0.1,1.2v8.3h-3.6V18.2z"></path> </g> <g> <polygon points="20.7,33.5 4.2,19.9 4.2,3.4 20.7,17 "></polygon> </g> </svg> 